<svg width="22" height="10" viewBox="0 0 22 10" fill="none" xmlns="http://www.w3.org/2000/svg">
<path d="M2.75508 4.996H3.19908C3.66308 4.996 4.01908 4.9 4.26708 4.708C4.51508 4.516 4.63908 4.24 4.63908 3.88C4.63908 3.52 4.51508 3.244 4.26708 3.052C4.01908 2.86 3.66308 2.764 3.19908 2.764H2.75508V4.996ZM7.92708 10H4.99908L2.75508 6.52V10H0.403078V0.952H4.06308C4.56708 0.952 5.00708 1.028 5.38308 1.18C5.75908 1.324 6.06708 1.524 6.30708 1.78C6.55508 2.036 6.73908 2.332 6.85908 2.668C6.98708 3.004 7.05108 3.364 7.05108 3.748C7.05108 4.436 6.88308 4.996 6.54708 5.428C6.21908 5.852 5.73108 6.14 5.08308 6.292L7.92708 10ZM10.2471 0.952L11.8071 6.796L13.7271 0.952H15.5991L17.5191 6.796L19.0791 0.952H21.5391L18.8391 10H16.4391L14.6631 4.756L12.8871 10H10.4871L7.78711 0.952H10.2471Z" fill="#4A90E2"/>
</svg>
