<?xml version="1.0" encoding="utf-8"?>
<!-- Generator: Adobe Illustrator 25.4.1, SVG Export Plug-In . SVG Version: 6.00 Build 0)  -->
<svg version="1.0" id="Layer_1" xmlns="http://www.w3.org/2000/svg" xmlns:xlink="http://www.w3.org/1999/xlink" x="0px" y="0px"
	 viewBox="0 0 984.3 749.2" style="enable-background:new 0 0 984.3 749.2;" xml:space="preserve">
<style type="text/css">
	.st0{fill:#010101;}
</style>
<polygon class="st0" points="217.6,349.2 217.6,307.1 243.8,307.1 243.8,201 217.6,201 217.6,156 349.8,156 349.8,201 323.6,201 
	323.6,307.1 349.8,307.1 349.8,349.2 "/>
<path class="st0" d="M476.2,349.2v-42.1h17.4v-43.6c0-13.1-8.7-18.9-21.8-18.9c-14.5,0-26.1,10.2-27.6,24.7v37.8h19v42.1H361.4
	v-42.1h17.4v-62.5h-17.4v-42.1h81.4v29.1l4.4-4.4c13.1-16,34.9-24.7,55.2-23.2c32,0,58.1,13.1,58.1,47.9v55.2h17.4v42.1L476.2,349.2
	z"/>
<path class="st0" d="M746.4,263.5l-56.7,5.8c0-16-4.4-32-23.2-32c-24.7,0-26.2,20.3-26.2,39.2l0,0c0,20.3,1.5,40.7,26.2,40.7
	c11.6,1.5,23.2-7.3,24.7-20.3V294h56.7v4.4c-8.7,46.5-50.8,53.7-79.9,53.7c-46.5,0-93-23.2-93-75.5l0,0c0-52.3,46.5-75.5,93-75.5
	C666.5,202.5,740.6,198.1,746.4,263.5z"/>
<path class="st0" d="M789.9,326c0,12.8-10.4,23.2-23.2,23.2s-23.2-10.4-23.2-23.2c0-12.8,10.4-23.2,23.2-23.2l0,0
	c12.7-0.1,23.1,10.1,23.2,22.8C790,325.6,790,325.8,789.9,326z"/>
<path class="st0" d="M391.9,368.1c-56.6,0-88.6,37.8-88.6,111.9s32,111.8,88.6,111.8s88.6-37.8,88.6-111.9S447.2,368.1,391.9,368.1z
	 M391.9,546.8c-20.3,0-24.7-20.3-24.7-66.8s4.4-66.8,24.7-66.8s24.7,20.3,24.7,66.8S412.3,546.8,391.9,546.8z"/>
<path class="st0" d="M579.3,368.1c-56.7,0-88.6,37.8-88.6,111.9s32,111.8,88.6,111.8s88.6-37.8,88.6-111.9S634.5,368.1,579.3,368.1z
	 M579.3,546.8c-20.3,0-24.7-20.3-24.7-66.8s4.4-66.8,24.7-66.8s24.7,20.3,24.7,66.8S599.7,546.8,579.3,546.8z"/>
<path class="st0" d="M766.7,368.1c-56.7,0-88.6,37.8-88.6,111.9s32,111.8,88.6,111.8s88.6-37.8,88.6-111.9S821.9,368.1,766.7,368.1z
	 M766.7,546.8c-20.3,0-24.7-20.3-24.7-66.8s4.4-66.8,24.7-66.8s24.7,20.3,24.7,66.8S787,546.8,766.7,546.8z"/>
<path class="st0" d="M277.2,458.1c-14.5-11.6-32-18.9-50.8-17.4c-14.5,0-30.5,4.4-40.7,14.5l4.4-34.9h91.5v-50.8H147.9l-14.5,101.7
	l39.2,20.3c10.2-8.7,21.8-14.5,34.9-14.5c7.3,0,13.1,2.9,18.9,7.3c7.3,7.3,10.2,17.4,10.2,27.6c0,4.4,0,8.7-1.5,11.6
	c-1.4,13.1-13.1,21.8-26.1,20.3c-24.7,0-23.2-30.5-17.4-42.1l0,0L129,535.1c4.4,39.2,45,58.1,78.4,58.1c23.2,0,45-7.3,61-21.8
	c5.8-5.8,11.6-11.6,16-20.3c7.3-11.6,10.2-26.1,10.2-39.2C297.5,491.6,290.2,472.7,277.2,458.1z"/>
</svg>
